# xmcd CD database file
#
# Track frame offsets:
#	150
#	11497
#	34421
#	56232
#	90515
#	112116
#	130416
#	149952
#	166050
#
# Disc length: 2340 seconds
#
# Revision: 1
# Processed by: cddbd v1.5.2PL0 Copyright (c) Steve Scherf et al.
# Submitted via: CDex 1.50beta10
#
DISCID=83092209
DTITLE=Parker, Charlie - Historical Masterpieces
DYEAR=1900
DGENRE=Jazz
TTITLE0=Koko
TTITLE1='Round Midnight
TTITLE2=Cool Blues
TTITLE3=Ornithology 1
TTITLE4=Move
TTITLE5=White Christmas
TTITLE6=Ornithology 2
TTITLE7=Groovin' High
TTITLE8=52ns Street
EXTD=
EXTT0=
EXTT1=
EXTT2=
EXTT3=
EXTT4=
EXTT5=
EXTT6=
EXTT7=
EXTT8=
PLAYORDER=
